<?xml version="1.0" encoding="UTF-8" standalone="no"?>
<!-- Created with Inkscape (http://www.inkscape.org/) -->

<svg
   xmlns:dc="http://purl.org/dc/elements/1.1/"
   xmlns:cc="http://creativecommons.org/ns#"
   xmlns:rdf="http://www.w3.org/1999/02/22-rdf-syntax-ns#"
   xmlns:svg="http://www.w3.org/2000/svg"
   xmlns="http://www.w3.org/2000/svg"
   xmlns:sodipodi="http://sodipodi.sourceforge.net/DTD/sodipodi-0.dtd"
   xmlns:inkscape="http://www.inkscape.org/namespaces/inkscape"
   version="1.1"
   id="svg16941"
   width="120"
   height="40"
   viewBox="0 0 120 40"
   sodipodi:docname="logofinis.svg"
   inkscape:version="0.92.4 (5da689c313, 2019-01-14)">
  <metadata
     id="metadata16947">
    <rdf:RDF>
      <cc:Work
         rdf:about="">
        <dc:format>image/svg+xml</dc:format>
        <dc:type
           rdf:resource="http://purl.org/dc/dcmitype/StillImage" />
        <dc:title></dc:title>
      </cc:Work>
    </rdf:RDF>
  </metadata>
  <defs
     id="defs16945" />
  <sodipodi:namedview
     pagecolor="#ffffff"
     bordercolor="#666666"
     borderopacity="1"
     objecttolerance="10"
     gridtolerance="10"
     guidetolerance="10"
     inkscape:pageopacity="0"
     inkscape:pageshadow="2"
     inkscape:window-width="1600"
     inkscape:window-height="837"
     id="namedview16943"
     showgrid="false"
     inkscape:zoom="4.2072853"
     inkscape:cx="47.016569"
     inkscape:cy="20"
     inkscape:window-x="-8"
     inkscape:window-y="-8"
     inkscape:window-maximized="1"
     inkscape:current-layer="svg16941" />
  <path
     style="fill:#f9f9f9"
     d="M 10.673561,36.129606 C -0.57461964,30.478324 -0.09455354,12.116681 11.493519,4.7677425 c 3.876816,-2.458604 5.567862,-2.886584 11.40555,-2.886584 4.109369,0 8.005157,0.595349 9.728971,1.486768 2.867366,1.482773 2.87104,1.497085 1.367243,5.3253818 l -1.507851,3.8386137 -5.466281,-0.453306 c -4.689831,-0.388918 -5.814376,-0.126289 -7.916902,1.848932 -2.639483,2.479665 -3.360723,8.384553 -1.458298,11.939268 1.289648,2.409729 5.366224,4.454792 10.656991,3.465722 6.283919,-1.174733 6.093385,-1.224406 6.817155,-7.982861 l 0.692719,-6.468518 h 5.465719 5.465719 l -0.498413,3.250001 c -0.274127,1.7875 -0.758325,4.902409 -1.075997,6.922019 -0.605432,3.84907 0.552496,5.677372 2.259089,3.566971 0.551055,-0.681445 1.321227,-4.05149 1.711494,-7.48899 l 0.709575,-6.250001 h 5.513104 5.513104 l -0.560816,3.250001 c -1.996114,11.567734 -2.000745,12.96193 -0.0418,12.584672 1.032046,-0.198754 1.921214,-1.030363 1.975928,-1.848021 0.05472,-0.817658 0.168023,-2.777092 0.251796,-4.354298 0.0992,-1.867735 1.506041,-4.221374 4.034667,-6.75 3.891814,-3.891816 7.098418,-4.8121 10.117408,-2.903664 1.800762,1.138341 2.824744,-0.863764 2.929954,-5.7286907 l 0.07028,-3.2499998 h 5.5 c 3.025,0 5.503152,0.3375 5.507004,0.75 0.0039,0.4125 -0.725417,5.8332325 -1.620597,12.0460715 -0.895179,6.212839 -1.367739,11.555932 -1.050131,11.873539 1.508586,1.508586 3.663724,-0.83868 3.663724,-3.990341 0,-6.842119 7.239702,-13.676855 12.823723,-12.106396 1.47195,0.413973 5.31207,0.635242 8.53361,0.491709 l 5.85735,-0.260969 -0.66027,5.348194 c -0.36314,2.941507 -0.8972,6.585694 -1.1868,8.098194 -0.38338,2.002372 -0.12258,2.75 0.95931,2.75 1.88221,0 1.09316,3.960009 -1.14572,5.75 -2.14332,1.713596 -7.66742,1.574002 -9.16596,-0.231623 -1.08623,-1.308831 -1.47633,-1.308831 -3.34495,0 -2.64884,1.855322 -6.710371,1.904022 -9.164001,0.109881 -1.589574,-1.162323 -2.377182,-1.162323 -5.159013,0 -4.343929,1.815009 -9.794523,1.742699 -11.365977,-0.150788 -1.131499,-1.363373 -1.506491,-1.363373 -3.587261,0 -2.924103,1.915946 -7.780143,1.967158 -9.331069,0.09841 -1.022607,-1.232165 -1.64134,-1.232165 -4.590327,0 -4.326785,1.807846 -9.924021,1.829891 -11.707801,0.04611 -1.170684,-1.170684 -1.661552,-1.170684 -3.262558,0 -2.632399,1.924857 -8.161573,1.720189 -10.252286,-0.3795 -1.663078,-1.670218 -1.998348,-1.67184 -6.75,-0.03265 -6.484064,2.23683 -14.073215,2.252684 -18.480067,0.03861 z m 65.630117,-7.013759 c 1.144052,-0.730855 1.69452,-2.599452 1.468433,-4.984687 -0.222267,-2.344925 -4.049778,-1.371925 -4.693574,1.193165 -0.925663,3.688132 0.592736,5.473183 3.225141,3.791522 z m 30.911212,-2.427731 c 0.77435,-2.439752 -0.84334,-4.29643 -3.01673,-3.46242 -2.20783,0.847224 -2.99966,3.402158 -1.5833,5.108758 1.49091,1.796437 3.76574,0.982281 4.60003,-1.646338 z"
     id="path16951"
     inkscape:connector-curvature="0"
     sodipodi:nodetypes="csssscssssscccsssscccssccssccscscssscccscccssssssssssccsssscscc" />
</svg>
